<svg width="60" height="60" viewBox="0 0 60 60" fill="none" xmlns="http://www.w3.org/2000/svg">
<path d="M4.07044 4H1.60095L0.366211 30.3L1.60095 56.6H4.07044L5.05823 34.992L14.8127 36.7207V23.8793L5.05823 25.608L4.07044 4Z" fill="#FFC700"/>
<path d="M58.3991 4H55.9296L54.9418 25.608L45.1874 23.8793V36.7207L54.9418 34.992L55.9296 56.6H58.3991L59.6339 30.3L58.3991 4Z" fill="#FFC700"/>
<path d="M24.9375 15.6064L17.2821 21.0393V39.3135L24.9375 44.7464H35.1859L42.8413 39.3135V21.1628L35.1859 15.7299H24.9375V15.6064ZM37.6553 30.2999C37.6553 34.498 34.1981 37.9553 29.9999 37.9553C25.8018 37.9553 22.3445 34.498 22.3445 30.2999C22.3445 26.1018 25.8018 22.6445 29.9999 22.6445C34.1981 22.6445 37.6553 26.1018 37.6553 30.2999Z" fill="#FFC700"/>
<path d="M30.0001 35.4861C32.8642 35.4861 35.186 33.1643 35.186 30.3002C35.186 27.4361 32.8642 25.1143 30.0001 25.1143C27.136 25.1143 24.8141 27.4361 24.8141 30.3002C24.8141 33.1643 27.136 35.4861 30.0001 35.4861Z" fill="#FFC700"/>
</svg>
